<svg  viewBox="0 0 44 44" fill="none" xmlns="http://www.w3.org/2000/svg">
<rect width="44" height="44" rx="22" fill="black"/>
<path fill-rule="evenodd" clip-rule="evenodd" d="M12.3478 16.665C9.21739 19.5775 9.21739 24.2997 12.3478 27.2122L18.4695 32.9078C20.0347 34.3641 22.5724 34.3641 24.1376 32.9078C25.7029 31.4515 25.7029 29.0904 24.1376 27.6341L23.5697 27.1057C20.7513 24.4835 20.7513 20.2321 23.5697 17.61L24.363 16.8719C26.0526 15.2999 26.0526 12.7511 24.363 11.179C22.6733 9.60699 19.9338 9.60699 18.2442 11.179L12.3478 16.665ZM32.6371 25C34.4543 23.3092 34.4543 20.568 32.6371 18.8773C30.8199 17.1865 27.8735 17.1865 26.0563 18.8773C24.2391 20.568 24.2391 23.3092 26.0563 25C27.8735 26.6907 30.8199 26.6907 32.6371 25Z" fill="white"/>
</svg>
